<?xml version="1.0" encoding="utf-8"?>
<!-- Generator: Adobe Illustrator 26.0.3, SVG Export Plug-In . SVG Version: 6.00 Build 0)  -->
<svg version="1.1" id="Layer_1" xmlns="http://www.w3.org/2000/svg" xmlns:xlink="http://www.w3.org/1999/xlink" x="0px" y="0px"
	 viewBox="0 0 244 40" style="enable-background:new 0 0 244 40;" xml:space="preserve">
<style type="text/css">
	.st0{fill:none;}
	.st1{display:none;enable-background:new    ;}
	.st2{display:inline;}
	.st3{display:inline;fill:#FFEB4D;}
	.st4{fill:#444444;}
	.st5{fill:#FFFFFF;}
</style>
<g>
	<g>
		<rect x="95.1" y="11.5" class="st0" width="144" height="25.4"/>
		<g class="st1">
			<path class="st2" d="M101.5,15.1v9.3h12.3v2.2h-12.3v10.1H99V12.9h16.3v2.2C115.3,15.1,101.5,15.1,101.5,15.1z"/>
			<path class="st2" d="M120.5,12.9h2.5v23.8h-2.5V12.9z"/>
			<path class="st2" d="M135.4,15.1H127v-2.2h19.2v2.2h-8.4v21.6h-2.5L135.4,15.1L135.4,15.1z"/>
			<path class="st2" d="M170.2,12.9v23.8h-2.1l-15.3-19.3v19.3h-2.5V12.9h2.1l15.3,19.3V12.9H170.2z"/>
			<path class="st2" d="M194.7,34.6v2.2h-16.8V12.9h16.3v2.2h-13.8v8.5h12.3v2.1h-12.3v8.8L194.7,34.6L194.7,34.6z"/>
			<path class="st2" d="M198.4,33.8l1-1.9c1.7,1.7,4.7,2.9,7.9,2.9c4.5,0,6.4-1.9,6.4-4.2c0-6.5-14.7-2.5-14.7-11.3
				c0-3.5,2.7-6.5,8.8-6.5c2.7,0,5.5,0.8,7.4,2.1l-0.8,2c-2-1.3-4.4-2-6.5-2c-4.4,0-6.3,1.9-6.3,4.3c0,6.5,14.7,2.6,14.7,11.3
				c0,3.5-2.8,6.5-8.9,6.5C203.6,36.9,200.1,35.7,198.4,33.8z"/>
			<path class="st2" d="M219.3,33.8l1-1.9c1.7,1.7,4.7,2.9,7.9,2.9c4.5,0,6.4-1.9,6.4-4.2c0-6.5-14.7-2.5-14.7-11.3
				c0-3.5,2.7-6.5,8.8-6.5c2.7,0,5.5,0.8,7.4,2.1l-0.9,2c-2-1.3-4.4-2-6.5-2c-4.4,0-6.3,1.9-6.3,4.3c0,6.5,14.7,2.6,14.7,11.3
				c0,3.5-2.8,6.5-8.9,6.5C224.6,36.9,221,35.7,219.3,33.8z"/>
		</g>
		<rect x="2" y="1" class="st0" width="95" height="40"/>
		<g class="st1">
			<path class="st3" d="M26.6,23.9H13v13.9H4.6V2.9h23.3v6.5H13v8h13.5v6.5H26.6z"/>
			<path class="st3" d="M58.8,2.9v22.8c0,2.6-0.6,4.8-1.7,6.7c-1.1,1.9-2.7,3.3-4.7,4.3s-4.5,1.5-7.3,1.5c-4.2,0-7.6-1.1-10-3.3
				s-3.7-5.2-3.7-9v-23h8.4V26c0.1,3.8,1.9,5.7,5.3,5.7c1.7,0,3.1-0.5,3.9-1.4c0.9-1,1.3-2.5,1.3-4.7V2.9H58.8z"/>
			<path class="st3" d="M93.1,37.8h-8.4L72.4,16.1v21.7H64V2.9h8.4l12.3,21.7V2.9h8.4C93.1,2.9,93.1,37.8,93.1,37.8z"/>
		</g>
	</g>
</g>
<g>
	<path d="M145,36.9l-8.7-16.4c0.1,0.4,0.2,1,0.4,1.6c0.1,0.6,0.3,1.3,0.4,2.1c0.1,0.8,0.2,1.6,0.3,2.4c0.1,0.9,0.1,1.7,0.1,2.6v7.7
		h-6.7V16.6h9.8l8.5,16.3c-0.2-0.6-0.4-1.4-0.5-2.2c-0.2-0.9-0.3-1.8-0.5-2.9c-0.1-1.1-0.2-2.2-0.2-3.4v-7.8h6.7v20.3H145z"/>
	<path d="M169.3,20v4.9h11.5v3.4h-11.5v5.2h13.9v3.4h-21.7V16.6h21.7l-0.8,3.4H169.3z"/>
	<path d="M214.7,16.6l-3.9,20.3h-8.2l-2.4-14.5l-2.7,14.5h-8.3l-3.6-20.3h7.4l1.1,16.2l2.8-13.9h6.8l2.6,13.9l1.7-16.2
		C208,16.6,214.7,16.6,214.7,16.6z"/>
	<path d="M241.8,31c0,1.3-0.5,2.4-1.6,3.3c-1.1,1-2.6,1.7-4.6,2.3c-2,0.5-4.4,0.8-7.3,0.8c-3.1,0-5.8-0.3-7.9-0.8
		c-2.1-0.6-3.9-1.3-5.3-2.1l4-2.7c1.2,0.7,2.6,1.2,4.1,1.5c1.5,0.4,3.1,0.5,4.9,0.5c1.1,0,2.1-0.1,2.9-0.3c0.8-0.2,1.5-0.5,1.9-0.9
		c0.5-0.4,0.7-0.8,0.7-1.4c0-0.5-0.2-0.9-0.6-1.3c-0.4-0.3-1-0.7-1.9-0.9c-0.9-0.3-2.1-0.6-3.6-0.8c-2.6-0.5-4.7-1-6.2-1.6
		c-1.6-0.6-2.7-1.3-3.4-2c-0.7-0.8-1.1-1.7-1.1-2.7c0-1.2,0.6-2.3,1.7-3.2c1.1-0.9,2.6-1.6,4.5-2c1.9-0.5,4-0.7,6.3-0.7
		c2.6,0,4.8,0.2,6.8,0.7s3.7,1.1,5.1,1.9l-3.7,2.6c-1.1-0.6-2.3-1-3.6-1.3s-2.6-0.4-4-0.4c-1,0-1.9,0.1-2.6,0.2
		c-0.8,0.2-1.3,0.4-1.8,0.7c-0.4,0.3-0.6,0.7-0.6,1.1s0.2,0.8,0.6,1.1c0.4,0.3,1.1,0.6,2.1,0.8c1,0.3,2.4,0.6,4.1,0.9
		c2.1,0.4,3.9,0.9,5.4,1.4s2.6,1.2,3.4,2C241.4,28.7,241.8,29.7,241.8,31z"/>
</g>
<g>
	<path class="st4" d="M15.6,4.9c1.9,0,3.6,0.3,4.9,0.8s2.6,1.3,3.7,2.4l-2.1,2.7c-0.9-0.9-1.9-1.5-3-1.9c-1-0.4-2.1-0.6-3.3-0.6
		c-1.6,0-3.1,0.4-4.5,1.3C10,10.5,8.9,11.9,8,13.9c-0.8,2-1.3,4.7-1.3,8s0.4,5.9,1.2,7.9s1.9,3.4,3.3,4.3s2.9,1.3,4.6,1.3
		c1.7,0,3-0.3,4.1-0.8c1.1-0.6,2-1.2,2.8-1.9l1.9,2.7c-0.9,1-2.1,1.8-3.6,2.5S17.8,39,15.6,39c-2.4,0-4.6-0.7-6.5-2
		c-2-1.3-3.5-3.2-4.6-5.8c-1.1-2.5-1.7-5.7-1.7-9.3c0-3.7,0.6-6.8,1.7-9.4C5.8,10,7.3,8.1,9.2,6.8C11.2,5.5,13.3,4.9,15.6,4.9z"/>
	<path class="st4" d="M50,22c0,3.3-0.4,6.3-1.2,8.8c-0.8,2.6-2,4.6-3.7,6C43.5,38.2,41.4,39,39,39c-2.4,0-4.4-0.7-6.1-2.1
		c-1.7-1.4-2.9-3.4-3.7-5.9c-0.8-2.5-1.2-5.5-1.2-8.9c0-3.3,0.4-6.3,1.2-8.9c0.8-2.6,2-4.6,3.7-6.1c1.7-1.5,3.7-2.2,6.1-2.2
		s4.5,0.7,6.1,2.1s2.9,3.4,3.7,6S50,18.5,50,22z M46.1,22c0-4.4-0.5-7.8-1.6-10.1s-2.9-3.5-5.4-3.5s-4.3,1.2-5.4,3.5
		C32.6,14.2,32,17.6,32,22s0.6,7.7,1.7,10c1.1,2.3,2.9,3.4,5.3,3.4c2.5,0,4.3-1.2,5.4-3.5C45.6,29.7,46.1,26.4,46.1,22z"/>
	<path class="st4" d="M76,21.8c0,3.5-0.4,6.3-1.2,8.5c-0.8,2.2-1.9,3.9-3.2,5.1c-1.3,1.2-2.8,2-4.4,2.5s-3.1,0.7-4.7,0.7h-6.8v-33
		H62c1.7,0,3.4,0.2,5.1,0.6s3.1,1.2,4.5,2.4c1.3,1.2,2.4,2.8,3.2,5C75.6,15.5,76,18.3,76,21.8z M72,21.8c0-2.9-0.3-5.2-0.8-6.9
		s-1.3-3-2.2-3.9c-0.9-0.9-1.9-1.4-2.9-1.7C65,9,63.9,8.8,62.9,8.8h-3.5v26.3H63c1.1,0,2.1-0.2,3.2-0.6c1.1-0.4,2-1,2.9-2
		s1.6-2.3,2.1-4.1C71.7,26.7,72,24.5,72,21.8z"/>
	<path class="st4" d="M87.2,8.8v11.1h11v3.4h-11V35h13.6v3.3H83.5v-33h16.9L100,8.8H87.2z"/>
	<path class="st4" d="M127.3,14.7c0,1.6-0.3,3.1-1,4.3s-1.5,2.2-2.6,3s-2.3,1.4-3.7,1.8l8.8,14.7h-4.5l-8.1-14.2h-4v14.2h-3.8v-33
		h7.7c3.7,0,6.5,0.8,8.4,2.3C126.3,9.3,127.3,11.6,127.3,14.7z M123.3,14.7c0-2.1-0.5-3.7-1.6-4.6s-2.8-1.4-5.1-1.4h-4.3V21h4.3
		c2.1,0,3.8-0.5,5-1.5C122.7,18.6,123.3,17,123.3,14.7z"/>
</g>
<g>
	<path class="st5" d="M14.6,2.9c1.9,0,3.6,0.3,4.9,0.8s2.6,1.3,3.7,2.4l-2.1,2.7c-0.9-0.9-1.9-1.5-3-1.9c-1-0.4-2.1-0.6-3.3-0.6
		c-1.6,0-3.1,0.4-4.5,1.3C9,8.5,7.9,9.9,7,11.9c-0.8,2-1.3,4.7-1.3,8s0.4,5.9,1.2,7.9s1.9,3.4,3.3,4.3c1.4,0.9,2.9,1.3,4.6,1.3
		c1.7,0,3-0.3,4.1-0.8c1.1-0.6,2-1.2,2.8-1.9l1.9,2.7c-0.9,1-2.1,1.8-3.6,2.5S16.8,37,14.6,37c-2.4,0-4.6-0.7-6.5-2
		c-2-1.3-3.5-3.2-4.6-5.8c-1.1-2.5-1.7-5.7-1.7-9.3c0-3.7,0.6-6.8,1.7-9.4C4.8,8,6.3,6.1,8.2,4.8C10.2,3.5,12.3,2.9,14.6,2.9z"/>
	<path class="st5" d="M49,20c0,3.3-0.4,6.3-1.2,8.8c-0.8,2.6-2,4.6-3.7,6C42.5,36.2,40.4,37,38,37c-2.4,0-4.4-0.7-6.1-2.1
		S29,31.5,28.2,29c-0.8-2.5-1.2-5.5-1.2-8.9c0-3.3,0.4-6.3,1.2-8.9c0.8-2.6,2-4.6,3.7-6.1c1.7-1.5,3.7-2.2,6.1-2.2s4.5,0.7,6.1,2.1
		s2.9,3.4,3.7,6S49,16.5,49,20z M45.1,20c0-4.4-0.5-7.8-1.6-10.1s-2.9-3.5-5.4-3.5s-4.3,1.2-5.4,3.5C31.6,12.2,31,15.6,31,20
		s0.6,7.7,1.7,10c1.1,2.3,2.9,3.4,5.3,3.4c2.5,0,4.3-1.2,5.4-3.5C44.6,27.7,45.1,24.4,45.1,20z"/>
	<path class="st5" d="M75,19.8c0,3.5-0.4,6.3-1.2,8.5c-0.8,2.2-1.9,3.9-3.2,5.1c-1.3,1.2-2.8,2-4.4,2.5s-3.1,0.7-4.7,0.7h-6.8v-33
		H61c1.7,0,3.4,0.2,5.1,0.6s3.1,1.2,4.5,2.4c1.3,1.2,2.4,2.8,3.2,5C74.6,13.5,75,16.3,75,19.8z M71,19.8c0-2.9-0.3-5.2-0.8-6.9
		S68.9,9.9,68,9c-0.9-0.9-1.9-1.4-2.9-1.7C64,7,62.9,6.8,61.9,6.8h-3.5v26.3H62c1.1,0,2.1-0.2,3.2-0.6c1.1-0.4,2-1,2.9-2
		s1.6-2.3,2.1-4.1C70.7,24.7,71,22.5,71,19.8z"/>
	<path class="st5" d="M86.2,6.8v11.1h11v3.4h-11V33h13.6v3.3H82.5v-33h16.9L99,6.8H86.2z"/>
	<path class="st5" d="M126.3,12.7c0,1.6-0.3,3.1-1,4.3s-1.5,2.2-2.6,3s-2.3,1.4-3.7,1.8l8.8,14.7h-4.5l-8.1-14.2h-4v14.2h-3.8v-33
		h7.7c3.7,0,6.5,0.8,8.4,2.3C125.3,7.3,126.3,9.6,126.3,12.7z M122.3,12.7c0-2.1-0.5-3.7-1.6-4.6s-2.8-1.4-5.1-1.4h-4.3V19h4.3
		c2.1,0,3.8-0.5,5-1.5C121.7,16.6,122.3,15,122.3,12.7z"/>
</g>
</svg>
