<?xml version="1.0" encoding="utf-8"?>
<!-- Generator: Adobe Illustrator 26.0.3, SVG Export Plug-In . SVG Version: 6.00 Build 0)  -->
<svg version="1.1" id="Layer_1" xmlns="http://www.w3.org/2000/svg" xmlns:xlink="http://www.w3.org/1999/xlink" x="0px" y="0px"
	 viewBox="0 0 244 40" style="enable-background:new 0 0 244 40;" xml:space="preserve">
<style type="text/css">
	.st0{fill:none;}
	.st1{display:none;enable-background:new    ;}
	.st2{display:inline;}
	.st3{display:inline;fill:#FFEB4D;}
	.st4{fill:#BB2020;}
	.st5{fill:none;stroke:#000000;stroke-miterlimit:10;}
</style>
<g>
	<g>
		<rect x="95.1" y="11.5" class="st0" width="144" height="25.4"/>
		<g class="st1">
			<path class="st2" d="M101.5,15.1v9.3h12.3v2.2h-12.3v10.1H99V12.9h16.3v2.2C115.3,15.1,101.5,15.1,101.5,15.1z"/>
			<path class="st2" d="M120.5,12.9h2.5v23.8h-2.5V12.9z"/>
			<path class="st2" d="M135.4,15.1H127v-2.2h19.2v2.2h-8.4v21.6h-2.5L135.4,15.1L135.4,15.1z"/>
			<path class="st2" d="M170.2,12.9v23.8h-2.1l-15.3-19.3v19.3h-2.5V12.9h2.1l15.3,19.3V12.9H170.2z"/>
			<path class="st2" d="M194.7,34.6v2.2h-16.8V12.9h16.3v2.2h-13.8v8.5h12.3v2.1h-12.3v8.8L194.7,34.6L194.7,34.6z"/>
			<path class="st2" d="M198.4,33.8l1-1.9c1.7,1.7,4.7,2.9,7.9,2.9c4.5,0,6.4-1.9,6.4-4.2c0-6.5-14.7-2.5-14.7-11.3
				c0-3.5,2.7-6.5,8.8-6.5c2.7,0,5.5,0.8,7.4,2.1l-0.8,2c-2-1.3-4.4-2-6.5-2c-4.4,0-6.3,1.9-6.3,4.3c0,6.5,14.7,2.6,14.7,11.3
				c0,3.5-2.8,6.5-8.9,6.5C203.6,36.9,200.1,35.7,198.4,33.8z"/>
			<path class="st2" d="M219.3,33.8l1-1.9c1.7,1.7,4.7,2.9,7.9,2.9c4.5,0,6.4-1.9,6.4-4.2c0-6.5-14.7-2.5-14.7-11.3
				c0-3.5,2.7-6.5,8.8-6.5c2.7,0,5.5,0.8,7.4,2.1l-0.9,2c-2-1.3-4.4-2-6.5-2c-4.4,0-6.3,1.9-6.3,4.3c0,6.5,14.7,2.6,14.7,11.3
				c0,3.5-2.8,6.5-8.9,6.5C224.6,36.9,221,35.7,219.3,33.8z"/>
		</g>
		<rect x="2" y="1" class="st0" width="95" height="40"/>
		<g class="st1">
			<path class="st3" d="M26.6,23.9H13v13.9H4.6V2.9h23.3v6.5H13v8h13.5v6.5H26.6z"/>
			<path class="st3" d="M58.8,2.9v22.8c0,2.6-0.6,4.8-1.7,6.7c-1.1,1.9-2.7,3.3-4.7,4.3s-4.5,1.5-7.3,1.5c-4.2,0-7.6-1.1-10-3.3
				s-3.7-5.2-3.7-9v-23h8.4V26c0.1,3.8,1.9,5.7,5.3,5.7c1.7,0,3.1-0.5,3.9-1.4c0.9-1,1.3-2.5,1.3-4.7V2.9H58.8z"/>
			<path class="st3" d="M93.1,37.8h-8.4L72.4,16.1v21.7H64V2.9h8.4l12.3,21.7V2.9h8.4C93.1,2.9,93.1,37.8,93.1,37.8z"/>
		</g>
	</g>
</g>
<g>
	<path d="M4.3,20.3c1.4,0.7,3.5,1.4,5.7,1.4c2.4,0,3.6-1,3.6-2.5c0-1.4-1.1-2.2-3.8-3.2C6,14.7,3.6,12.6,3.6,9.3
		c0-3.9,3.3-6.9,8.7-6.9c2.6,0,4.5,0.5,5.8,1.2l-1.2,4.2c-0.9-0.4-2.5-1.1-4.8-1.1s-3.3,1-3.3,2.2c0,1.5,1.3,2.1,4.2,3.2
		c4,1.5,5.9,3.6,5.9,6.8c0,3.8-3,7.1-9.2,7.1c-2.6,0-5.2-0.7-6.5-1.4L4.3,20.3z"/>
	<path d="M22.5,3c1.6-0.3,3.8-0.5,7-0.5c3.2,0,5.5,0.6,7,1.8C38,5.5,39,7.5,39,9.7c0,2.2-0.7,4.1-2.1,5.4c-1.8,1.7-4.4,2.4-7.4,2.4
		c-0.7,0-1.3,0-1.8-0.1v8.2h-5.1V3z M27.6,13.4c0.4,0.1,1,0.1,1.7,0.1c2.8,0,4.5-1.4,4.5-3.7c0-2.1-1.5-3.4-4-3.4
		c-1.1,0-1.8,0.1-2.1,0.2V13.4z"/>
	<path d="M45.6,19.8l-1.6,5.9h-5.4l7-22.9h6.8l7.1,22.9h-5.6l-1.8-5.9H45.6z M51.4,15.9L49.9,11c-0.4-1.4-0.8-3.1-1.2-4.4h-0.1
		C48.4,8,48,9.7,47.7,11l-1.4,4.9H51.4z"/>
	<path d="M62.5,3c1.7-0.3,4.1-0.5,6.9-0.5c3.4,0,5.8,0.5,7.4,1.8c1.4,1.1,2.1,2.7,2.1,4.8c0,2.9-2.1,4.9-4,5.6v0.1
		c1.6,0.6,2.5,2.2,3.1,4.3c0.7,2.6,1.4,5.6,1.9,6.5h-5.3c-0.4-0.6-0.9-2.5-1.6-5.3c-0.6-2.9-1.6-3.6-3.7-3.7h-1.6v9h-5.1V3z
		 M67.7,12.9h2c2.6,0,4.1-1.3,4.1-3.3c0-2.1-1.4-3.2-3.8-3.2c-1.3,0-2,0.1-2.3,0.2V12.9z"/>
	<path d="M82.7,2.7h5.1v10.1h0.1c0.5-0.9,1.1-1.7,1.6-2.5l5.2-7.6h6.4l-7.6,9.8l8,13.2h-6.1l-5.6-9.9l-2,2.4v7.5h-5.1V2.7z"/>
</g>
<g>
	<path class="st4" d="M105.7,10h15.2v3.1h-11.6v9.4h10.7v3h-10.7v12.8h-3.7V10z"/>
	<path class="st4" d="M129.8,10v28.3h-3.7V10H129.8z"/>
	<path class="st4" d="M141.6,13.1h-8.6V10h21v3.1h-8.7v25.2h-3.7V13.1z"/>
	<path class="st4" d="M157.1,38.3V10h4l9.1,14.3c2.1,3.3,3.7,6.3,5.1,9.2l0.1,0c-0.3-3.8-0.4-7.2-0.4-11.6V10h3.4v28.3h-3.7l-9-14.4
		c-2-3.2-3.9-6.4-5.3-9.5l-0.1,0c0.2,3.6,0.3,7,0.3,11.7v12.1H157.1z"/>
	<path class="st4" d="M199.4,25h-11v10.2h12.3v3.1h-15.9V10H200v3.1h-11.6V22h11V25z"/>
	<path class="st4" d="M204.9,33.9c1.6,1,4,1.8,6.6,1.8c3.7,0,5.9-2,5.9-4.8c0-2.6-1.5-4.2-5.3-5.6c-4.6-1.6-7.5-4-7.5-8
		c0-4.4,3.7-7.7,9.2-7.7c2.9,0,5,0.7,6.3,1.4l-1,3c-0.9-0.5-2.8-1.3-5.4-1.3c-3.9,0-5.3,2.3-5.3,4.2c0,2.6,1.7,3.9,5.6,5.5
		c4.8,1.8,7.2,4.2,7.2,8.3c0,4.4-3.2,8.1-9.9,8.1c-2.7,0-5.7-0.8-7.2-1.8L204.9,33.9z"/>
	<path class="st4" d="M225.6,33.9c1.6,1,4,1.8,6.6,1.8c3.7,0,5.9-2,5.9-4.8c0-2.6-1.5-4.2-5.3-5.6c-4.6-1.6-7.5-4-7.5-8
		c0-4.4,3.7-7.7,9.2-7.7c2.9,0,5,0.7,6.3,1.4l-1,3c-0.9-0.5-2.8-1.3-5.4-1.3c-3.9,0-5.3,2.3-5.3,4.2c0,2.6,1.7,3.9,5.6,5.5
		c4.8,1.8,7.2,4.2,7.2,8.3c0,4.4-3.2,8.1-9.9,8.1c-2.7,0-5.7-0.8-7.2-1.8L225.6,33.9z"/>
</g>
<line class="st5" x1="3.3" y1="28.7" x2="101.4" y2="28.7"/>
<line class="st5" x1="3.3" y1="33.4" x2="101.4" y2="33.4"/>
<line class="st5" x1="3.3" y1="38" x2="101.4" y2="38"/>
</svg>
